<?xml version="1.0" encoding="UTF-8"?>
<svg width="29px" height="20px" viewBox="0 0 29 20" version="1.1" xmlns="http://www.w3.org/2000/svg" xmlns:xlink="http://www.w3.org/1999/xlink">
    <!-- Generator: Sketch 52.3 (67297) - http://www.bohemiancoding.com/sketch -->
    <title>Favicon</title>
    <desc>Created with Sketch.</desc>
    <g id="Page-1" stroke="none" stroke-width="1" fill="none" fill-rule="evenodd">
        <g id="Artboard" transform="translate(-166.000000, -344.000000)">
            <g id="Favicon" transform="translate(164.000000, 337.000000)">
                <rect id="Rectangle" x="0" y="0" width="34" height="34"></rect>
                <g id="Cap-copy-cat" transform="translate(2.000000, 7.000000)">
                    <path d="M6.84364724,13.6890796 C6.84575262,14.0590148 6.8690449,14.3576745 6.93275482,14.5470575 C7.18939871,15.3099526 9.80223726,16.1106741 14.8911167,16.568041 C17.5143083,16.8038024 20.841503,16.418898 23.1972702,15.9115338 C22.5017207,16.5288523 21.3927919,17.2599657 19.8704836,18.1048741 C17.4687083,19.1788021 14.6741341,19.7157661 11.4867608,19.7157661 C6.70570094,19.7157661 0.713857562,18.1048741 0.0674766201,17.0695176 C-0.363444008,16.3792799 1.26960123,15.4971971 4.96661234,14.4232691 C5.63095991,14.1594898 6.25663821,13.9147599 6.84364724,13.6890796 Z" id="Combined-Shape" fill-opacity="0.816462862" fill="#FFC5A6"></path>
                    <path d="M9.17163759,4.8829415 C9.89364395,4.23306125 13.0711082,2.76923077 15.8846724,2.76923077 C18.6982365,2.76923077 22.5142639,3.38842368 24.1505247,5.42366463 C25.7867855,7.45890558 26.5685031,14.2772114 25.7867855,15.0201877 C25.0050679,15.7631639 19.0016359,16.9940896 14.8206331,16.6183188 C9.8266514,16.1694809 7.26253719,15.3836912 7.0106792,14.6350226 C6.81357407,14.0491114 7.0106792,12.397378 7.0106792,10.8483029 C7.0106792,8.6967388 8.0470399,5.89519551 9.17163759,4.8829415 Z" id="Rectangle" fill="#A6FFCF"></path>
                    <path d="M8.01381833,11.6139616 C8.02022008,11.4466834 8.02922534,11.2375359 8.04161109,10.9570855 C8.06192383,10.4971445 8.07198562,10.2242251 8.07759827,9.93339882 C8.08002829,9.80748425 8.08127459,9.68761235 8.08127459,9.57242742 C8.08127459,7.33194923 9.13170291,4.45172217 10.4171354,3.2947002 C11.5469677,2.27773457 14.8667407,1.07692308 17.3142812,1.07692308 C20.9119651,1.07692308 24.1981445,1.96732465 25.7624337,3.91304471 C27.4402543,5.9999793 28.464926,12.9561256 27.1900619,14.1678084 C26.7511175,14.584999 25.7676488,14.9315031 24.3492797,15.2506817 C23.6533828,15.8271797 22.6490711,16.4755958 21.2688402,17.2377952 C18.9467782,18.2760803 16.2640018,18.7915628 13.2275463,18.7915628 C8.80616723,18.7915628 2.87484981,17.3413149 1.98240383,15.9118177 C1.35030354,14.8993355 1.98107134,14.0743219 3.17628865,13.4287301 C3.99593775,12.9859999 5.26666908,12.5196701 6.92214089,12.0435004 C7.29955326,11.8936488 7.66344231,11.7504702 8.01381833,11.6139616 Z" id="Combined-Shape" stroke="#4C4B4E" stroke-width="2"></path>
                    <path d="M10.4171354,3.2947002 C11.5469677,2.27773457 14.8667407,1.07692308 17.3142812,1.07692308 C20.9119651,1.07692308 24.1981445,1.96732465 25.7624337,3.91304471 C27.4402543,5.9999793 28.464926,12.9561256 27.1900619,14.1678084 C26.0624858,15.2395026 19.9625913,16.2564366 16.2375847,15.9216488 C11.3341934,15.4809528 8.585163,14.7471711 8.13346912,13.4044738 C7.97081996,12.9209858 7.97081996,12.5600079 8.04161109,10.9570855 C8.06192383,10.4971445 8.07198562,10.2242251 8.07759827,9.93339882 C8.08002829,9.80748425 8.08127459,9.68761235 8.08127459,9.57242742 C8.08127459,7.33194923 9.13170291,4.45172217 10.4171354,3.2947002 Z" id="Rectangle" stroke="#4C4B4E" stroke-width="2"></path>
                    <path d="M18,2.07692308 C18.764702,2.07692308 19.3846154,1.61198801 19.3846154,1.03846154 C19.3846154,0.464935068 19.1470233,0 18,0 C16.8529767,1.05352383e-16 16.6153846,0.464935068 16.6153846,1.03846154 C16.6153846,1.61198801 17.235298,2.07692308 18,2.07692308 Z" id="Oval" fill="#4C4B4E"></path>
                </g>
            </g>
        </g>
    </g>
</svg>