<?xml version="1.0" encoding="UTF-8"?>
<svg width="30px" height="30px" viewBox="0 0 30 30" version="1.1" xmlns="http://www.w3.org/2000/svg" xmlns:xlink="http://www.w3.org/1999/xlink">
    <!-- Generator: Sketch 52.3 (67297) - http://www.bohemiancoding.com/sketch -->
    <title>Favicon</title>
    <desc>Created with Sketch.</desc>
    <defs>
        <linearGradient x1="50%" y1="0%" x2="50%" y2="100%" id="linearGradient-1">
            <stop stop-color="#51E2A0" offset="0%"></stop>
            <stop stop-color="#38CB88" offset="100%"></stop>
        </linearGradient>
    </defs>
    <g id="Page-1" stroke="none" stroke-width="1" fill="none" fill-rule="evenodd">
        <g id="Artboard" transform="translate(-299.000000, -262.000000)" fill="url(#linearGradient-1)">
            <g id="Favicon" transform="translate(297.000000, 260.000000)">
                <path d="M17,32 C8.71572875,32 2,25.2842712 2,17 C2,8.71572875 8.71572875,2 17,2 C25.2842712,2 32,8.71572875 32,17 C32,25.2842712 25.2842712,32 17,32 Z M24.6178571,24.4892857 L21.1571429,18.9928571 C21.1571429,18.9928571 22.9892857,17.975 22.9892857,15.0232143 C22.9892857,12.0714286 20.9535714,10.0357143 16.475,10.0357143 C13.4214286,10.0357143 10.5714286,10.2392857 10.5714286,10.2392857 L10.5714286,24.4892857 L15.8642857,24.4892857 L15.8642857,19.8071429 L16.0678571,19.8071429 L18.5107143,24.4892857 L24.6178571,24.4892857 Z" id="Combined-Shape"></path>
            </g>
        </g>
    </g>
</svg>