<?xml version="1.0" encoding="UTF-8"?>
<svg width="29px" height="29px" viewBox="0 0 29 29" version="1.1" xmlns="http://www.w3.org/2000/svg" xmlns:xlink="http://www.w3.org/1999/xlink">
    <!-- Generator: Sketch 52.3 (67297) - http://www.bohemiancoding.com/sketch -->
    <title>Favicon</title>
    <desc>Created with Sketch.</desc>
    <g id="Page-1" stroke="none" stroke-width="1" fill="none" fill-rule="evenodd">
        <g id="Artboard" transform="translate(-267.000000, -263.000000)" fill="#46D795">
            <g id="Favicon" transform="translate(264.000000, 260.000000)">
                <path d="M20.633383,12.0667206 C20.4339094,12.186716 20.2288978,12.3530707 20.0183423,12.5657899 C19.8077868,12.778509 19.5861527,13.0594031 19.3534335,13.4084806 C19.1207142,13.7575581 18.8686054,14.1938985 18.5970996,14.7175148 C18.3255938,15.2411311 18.0346991,15.8738246 17.7244067,16.6156143 C17.9460441,16.7028837 18.1565965,16.7601534 18.3560702,16.7874251 C18.5555438,16.8146967 18.771637,16.8283324 19.0043563,16.8283324 C19.7800872,16.8283324 20.4200556,16.6728861 20.9242806,16.3619889 C21.4285057,16.0510918 21.7969724,15.6611126 22.0296916,15.1920397 C22.2624109,14.7229667 22.3566054,14.2184482 22.3122779,13.6784689 C22.2679504,13.1384896 22.0851023,12.6339711 21.7637281,12.1648981 C21.4423539,11.6958252 20.9769223,11.305846 20.3674195,10.9949489 C19.7579166,10.6840517 19.0099016,10.5286054 18.1233521,10.5286054 C17.4251943,10.5286054 16.8406344,10.6731432 16.3696549,10.962223 C15.8986755,11.2513028 15.5385201,11.6331006 15.289178,12.1076279 C15.039836,12.5821552 14.8985442,13.1193992 14.8652986,13.7193762 C14.832053,14.3193532 14.9151658,14.9302297 15.1146395,15.5520241 C14.9484114,15.5956587 14.7600225,15.6038401 14.5494669,15.5765684 C14.3389114,15.5492968 14.1394407,15.4783915 13.951049,15.3638504 C13.7626572,15.2493093 13.6075133,15.091136 13.4856127,14.8893255 C13.3637122,14.6875151 13.3027628,14.4393465 13.3027628,14.1448123 C13.3138447,13.3702966 13.4800702,12.6830605 13.8014445,12.0830835 C14.1228187,11.4831065 14.5494643,10.9867694 15.081394,10.5940571 C15.6133238,10.2013449 16.2283583,9.92045082 16.9265161,9.75136639 C17.6246739,9.58228197 18.3505255,9.54682931 19.1040926,9.64500736 C19.8022504,9.74318542 20.4533005,9.91772156 21.0572624,10.168621 C21.6612243,10.4195205 22.1876052,10.7495029 22.636421,11.1585781 C23.0852367,11.5676533 23.4398512,12.0612634 23.7002751,12.639423 C23.9606991,13.2175827 24.0909091,13.8830017 24.0909091,14.6357001 C24.0909091,15.1811338 23.9579286,15.7074693 23.6919638,16.2147226 C23.4259989,16.7219759 23.0824661,17.1719519 22.661355,17.5646641 C22.240244,17.9573763 21.7692716,18.2737231 21.2484237,18.5137139 C20.7275758,18.7537047 20.2122766,18.890061 19.7025106,18.922787 C19.7800837,19.2609559 19.8382626,19.6100282 19.8770492,19.9700144 C19.9158357,20.3300006 19.962933,20.6790729 20.0183423,21.0172417 C20.0737517,21.3554106 20.154094,21.6690302 20.2593718,21.95811 C20.3646495,22.2471898 20.5225638,22.4844499 20.7331193,22.6698974 C20.9436749,22.8553448 21.2207175,22.9753384 21.5642554,23.0298817 C21.9077934,23.0844251 22.3455207,23.0516996 22.8774504,22.9317042 C22.8552867,23.2262383 22.7389288,23.5562207 22.5283733,23.9216613 C22.3178177,24.2871018 22.0601681,24.6170842 21.7554167,24.9116184 C21.4506653,25.2061525 21.1182142,25.4379583 20.7580534,25.6070428 C20.3978927,25.7761272 20.0626711,25.8170341 19.7523788,25.7297647 C19.1428759,25.555226 18.7106895,25.2825132 18.4558065,24.9116184 C18.2009235,24.5407235 18.0374684,24.1180188 17.9654362,23.6434915 C17.893404,23.1689643 17.8795519,22.6617186 17.9238794,22.1217393 C17.9682069,21.58176 17.9959111,21.0581516 18.006993,20.5508983 C18.0180749,20.043645 17.9682072,19.5773063 17.8573885,19.151868 C17.7465698,18.7264298 17.5027723,18.3828118 17.1259888,18.1210036 C16.9486788,18.5791679 16.7686012,19.0645965 16.5857503,19.5773041 C16.4028995,20.0900117 16.2117401,20.6408914 16.0122664,21.2299598 C15.7019741,22.1462883 15.3251961,22.8362515 14.8819214,23.29987 C14.4386466,23.7634886 13.9787559,24.0443827 13.5022355,24.1425608 C13.0257151,24.2407388 12.5575131,24.180742 12.0976155,23.9625686 C11.6377179,23.7443951 11.241547,23.4171399 10.9090909,22.980793 C11.4742663,22.7408022 11.9535499,22.4571809 12.3469563,22.1299208 C12.7403627,21.8026606 13.0894364,21.4290441 13.3941878,21.0090603 C13.6989392,20.5890764 13.9815226,20.1200105 14.2419466,19.6018485 C14.5023705,19.0836866 14.7794131,18.513717 15.0730827,17.8919226 C15.3667522,17.2701283 15.7019737,16.5910736 16.0787573,15.8547382 C16.4555409,15.1184028 16.9098907,14.3248088 17.4418205,13.4739323 C17.6745397,13.1139461 17.8878625,12.8085079 18.0817953,12.5576084 C18.275728,12.3067089 18.4890508,12.1212643 18.72177,12.0012689 C18.9544893,11.8812735 19.2204502,11.8267309 19.5196607,11.8376396 C19.8188712,11.8485483 20.1901082,11.9249078 20.633383,12.0667206 Z M17.5,3 L17.5,3 C25.5081289,3 32,9.49187113 32,17.5 L32,17.5 C32,25.5081289 25.5081289,32 17.5,32 L17.5,32 C9.49187113,32 3,25.5081289 3,17.5 L3,17.5 C3,9.49187113 9.49187113,3 17.5,3 Z" id="Combined-Shape"></path>
            </g>
        </g>
    </g>
</svg>