<?xml version="1.0" encoding="UTF-8"?>
<svg width="32px" height="32px" viewBox="0 0 32 32" version="1.1" xmlns="http://www.w3.org/2000/svg" xmlns:xlink="http://www.w3.org/1999/xlink">
    <!-- Generator: Sketch 52.3 (67297) - http://www.bohemiancoding.com/sketch -->
    <title>Roster</title>
    <defs>
        <linearGradient x1="50%" y1="0%" x2="50%" y2="100%" id="linearGradient-1">
            <stop stop-color="#51E2A0" offset="0%"></stop>
            <stop stop-color="#38CB88" offset="100%"></stop>
        </linearGradient>
    </defs>
    <g id="Page-1" stroke="none" stroke-width="1" fill="none" fill-rule="evenodd">
        <g id="Desktop-HD" transform="translate(-120.000000, -9.000000)" fill="url(#linearGradient-1)">
            <g id="Header">
                <path d="M136,41 C127.163444,41 120,33.836556 120,25 C120,16.163444 127.163444,9 136,9 C144.836556,9 152,16.163444 152,25 C152,33.836556 144.836556,41 136,41 Z M144.125714,32.9885714 L140.434286,27.1257143 C140.434286,27.1257143 142.388571,26.04 142.388571,22.8914286 C142.388571,19.7428571 140.217143,17.5714286 135.44,17.5714286 C132.182857,17.5714286 129.142857,17.7885714 129.142857,17.7885714 L129.142857,32.9885714 L134.788571,32.9885714 L134.788571,27.9942857 L135.005714,27.9942857 L137.611429,32.9885714 L144.125714,32.9885714 Z" id="Combined-Shape"></path>
            </g>
        </g>
    </g>
</svg>
