<?xml version="1.0" encoding="UTF-8"?>
<svg width="103px" height="29px" viewBox="0 0 103 29" version="1.1" xmlns="http://www.w3.org/2000/svg" xmlns:xlink="http://www.w3.org/1999/xlink">
    <!-- Generator: Sketch 52.3 (67297) - http://www.bohemiancoding.com/sketch -->
    <title>Logo Orioles</title>
    <desc>Created with Sketch.</desc>
    <g id="Page-1" stroke="none" stroke-width="1" fill="none" fill-rule="evenodd">
        <g id="Desktop-HD" transform="translate(-642.000000, -57.000000)" fill="#46D795">
            <g id="Logo-Orioles" transform="translate(642.000000, 57.000000)">
                <path d="M43.3720062,14.9746835 L43.3720062,21.7389241 L39,21.7389241 L39,10.2515823 L41.1860031,10.2515823 L42.2429716,11.6518987 C42.8034881,11.27215 43.4440687,10.9398748 44.1647326,10.6550633 C44.8853966,10.3702517 45.549999,10.2278481 46.1585596,10.2278481 L47.0473741,13.693038 C46.4708429,13.693038 45.8382696,13.8117077 45.1496351,14.0490506 C44.4610007,14.2863936 43.8684636,14.5949348 43.3720062,14.9746835 Z M60.4370957,16.0427215 C60.4370957,17.2927278 60.1448308,18.3686664 59.5602922,19.2705696 C58.9757537,20.1724729 58.175028,20.8528458 57.158091,21.3117089 C56.1411541,21.7705719 55.0001199,22 53.7349543,22 C51.7811542,22 50.2077281,21.481809 49.0146289,20.4454114 C47.8215296,19.4090138 47.224989,17.9019086 47.224989,15.9240506 C47.224989,14.6740444 47.5172539,13.5862388 48.1017924,12.6606013 C48.686331,11.7349637 49.4790494,11.0308568 50.4799716,10.5482595 C51.4808938,10.0656621 52.5979062,9.82436709 53.8310423,9.82436709 C55.1282375,9.82436709 56.2732753,10.0617065 57.2661901,10.5363924 C58.2591049,11.0110783 59.0358088,11.7151852 59.5963253,12.6487342 C60.1568417,13.5822831 60.4370957,14.7136009 60.4370957,16.0427215 Z M53.7829983,18.4873418 C54.4716328,18.4873418 55.0001117,18.2816476 55.3684511,17.8702532 C55.7367905,17.4588587 55.9209574,16.8496876 55.9209574,16.0427215 C55.9209574,15.2515783 55.7407941,14.6028506 55.3804621,14.096519 C55.0201301,13.5901873 54.5196765,13.3370253 53.8790864,13.3370253 C53.2064666,13.3370253 52.6819913,13.5664534 52.3056446,14.0253165 C51.9292978,14.4841795 51.7411273,15.1170846 51.7411273,15.9240506 C51.7411273,16.7151938 51.9172869,17.3401876 52.2696115,17.7990506 C52.6219361,18.2579137 53.1263934,18.4873418 53.7829983,18.4873418 Z M60.8601175,20.6471519 L62.0852401,17.9177215 C62.549668,18.1392416 63.1141796,18.3291131 63.7787919,18.4873418 C64.4434043,18.6455704 64.9838941,18.7246835 65.4002778,18.7246835 C65.6885434,18.7246835 65.9287611,18.6772157 66.1209381,18.5822785 C66.3131152,18.4873413 66.4092023,18.3607603 66.4092023,18.2025316 C66.4092023,18.1075945 66.3011043,17.9928804 66.0849051,17.8583861 C65.8687059,17.7238917 65.5924555,17.6012664 65.2561457,17.4905063 C64.0390243,17.063289 63.0421208,16.556965 62.2654052,15.971519 C61.4886896,15.386073 61.1003376,14.6186756 61.1003376,13.6693038 C61.1003376,12.4667661 61.5567513,11.5253199 62.4695923,10.8449367 C63.3824333,10.1645536 64.64758,9.82436709 66.2650702,9.82436709 C66.9537047,9.82436709 67.7103905,9.91534719 68.5351504,10.0973101 C69.3599102,10.2792731 70.0685525,10.5996812 70.6610984,11.0585443 L69.4359758,13.7879747 C68.9555332,13.5822775 68.4630868,13.4161399 67.9586221,13.289557 C67.4541573,13.1629741 66.99374,13.0996835 66.5773564,13.0996835 C66.2250318,13.0996835 65.9367705,13.1471514 65.7125639,13.2420886 C65.4883574,13.3370258 65.3762558,13.4636068 65.3762558,13.6218354 C65.3762558,13.7167726 65.4883574,13.827531 65.7125639,13.9541139 C65.9367705,14.0806968 66.233039,14.2072778 66.6013784,14.3338608 C67.802485,14.7452552 68.783374,15.2476236 69.5440749,15.840981 C70.3047757,16.4343384 70.6851205,17.2056915 70.6851205,18.1550633 C70.6851205,19.3734238 70.2767503,20.3188258 69.4599978,20.9912975 C68.6432453,21.6637692 67.4341495,22 65.832674,22 C65.1440395,22 64.2912666,21.8892416 63.2743297,21.6677215 C62.2573928,21.4462014 61.4526634,21.106015 60.8601175,20.6471519 Z M77.579438,10.7025316 L80.6302335,10.7025316 L81.0386077,14.096519 L77.579438,14.096519 L77.579438,16.9446203 C77.579438,17.4193062 77.7035504,17.7950936 77.9517791,18.0719937 C78.2000078,18.3488938 78.532309,18.4873418 78.9486927,18.4873418 C79.5252238,18.4873418 80.0857318,18.3370268 80.6302335,18.0363924 L81.8793781,20.9794304 C81.5750978,21.2325962 81.098666,21.4659799 80.4500684,21.6795886 C79.8014708,21.8931973 79.2049302,22 78.6604285,22 C77.6995432,22 76.8027304,21.8259511 75.9699631,21.4778481 C75.1371959,21.1297451 74.4685899,20.6115541 73.9641251,19.9232595 C73.4596603,19.2349649 73.2074317,18.4003214 73.2074317,17.4193038 L73.2074317,14.096519 L71.4057808,14.096519 L71.4057808,10.7025316 L73.2074317,10.7025316 L73.2074317,7.59335443 L77.579438,7 L77.579438,10.7025316 Z M93.8569878,15.8053797 L93.8569878,17.0632911 L86.7704942,17.0632911 C86.9306417,17.5537999 87.2309139,17.9374986 87.6713196,18.2143987 C88.1117254,18.4912989 88.6922516,18.6297468 89.4129155,18.6297468 C90.5179336,18.6297468 91.5828988,18.3686735 92.6078432,17.846519 L93.8329658,20.7658228 C93.3525231,21.1139258 92.6598954,21.4066444 91.7550617,21.6439873 C90.8502281,21.8813303 89.9253899,22 88.9805193,22 C87.6192651,22 86.4141729,21.7705719 85.3652065,21.3117089 C84.31624,20.8528458 83.4954962,20.1685172 82.9029502,19.2587025 C82.3104043,18.3488879 82.0141358,17.2610823 82.0141358,15.9952532 C82.0141358,14.7452469 82.2863825,13.6534857 82.8308842,12.7199367 C83.3753859,11.7863877 84.1240644,11.0704139 85.0769423,10.5719937 C86.0298202,10.0735735 87.0987891,9.82436709 88.283881,9.82436709 C89.4849876,9.82436709 90.5019093,10.0933517 91.3346765,10.6313291 C92.1674438,11.1693065 92.7960135,11.889236 93.2204045,12.7911392 C93.6447955,13.6930425 93.8569878,14.6977793 93.8569878,15.8053797 Z M86.6503841,14.9272152 L89.6771577,14.9272152 C89.6771577,14.5316436 89.5490416,14.1598119 89.2928055,13.8117089 C89.0365694,13.4636059 88.6602283,13.289557 88.1637709,13.289557 C87.763402,13.289557 87.4070791,13.4556945 87.0947914,13.7879747 C86.7825036,14.1202548 86.6343694,14.4999979 86.6503841,14.9272152 Z M99.3246321,14.9746835 L99.3246321,21.7389241 L94.9526259,21.7389241 L94.9526259,10.2515823 L97.138629,10.2515823 L98.1955976,11.6518987 C98.756114,11.27215 99.3966946,10.9398748 100.117359,10.6550633 C100.838023,10.3702517 101.502625,10.2278481 102.111186,10.2278481 L103,13.693038 C102.423469,13.693038 101.790895,13.8117077 101.102261,14.0490506 C100.413627,14.2863936 99.8210895,14.5949348 99.3246321,14.9746835 Z" id="roster"></path>
                <path d="M17.633383,9.06672058 C17.4339094,9.18671598 17.2288978,9.35307074 17.0183423,9.56578986 C16.8077868,9.77850897 16.5861527,10.0594031 16.3534335,10.4084806 C16.1207142,10.7575581 15.8686054,11.1938985 15.5970996,11.7175148 C15.3255938,12.2411311 15.0346991,12.8738246 14.7244067,13.6156143 C14.9460441,13.7028837 15.1565965,13.7601534 15.3560702,13.7874251 C15.5555438,13.8146967 15.771637,13.8283324 16.0043563,13.8283324 C16.7800872,13.8283324 17.4200556,13.6728861 17.9242806,13.3619889 C18.4285057,13.0510918 18.7969724,12.6611126 19.0296916,12.1920397 C19.2624109,11.7229667 19.3566054,11.2184482 19.3122779,10.6784689 C19.2679504,10.1384896 19.0851023,9.63397106 18.7637281,9.16489814 C18.4423539,8.69582522 17.9769223,8.30584602 17.3674195,7.99494885 C16.7579166,7.68405168 16.0099016,7.52860543 15.1233521,7.52860543 C14.4251943,7.52860543 13.8406344,7.67314317 13.3696549,7.962223 C12.8986755,8.25130282 12.5385201,8.63310064 12.289178,9.1076279 C12.039836,9.58215516 11.8985442,10.1193992 11.8652986,10.7193762 C11.832053,11.3193532 11.9151658,11.9302297 12.1146395,12.5520241 C11.9484114,12.5956587 11.7600225,12.6038401 11.5494669,12.5765684 C11.3389114,12.5492968 11.1394407,12.4783915 10.951049,12.3638504 C10.7626572,12.2493093 10.6075133,12.091136 10.4856127,11.8893255 C10.3637122,11.6875151 10.3027628,11.4393465 10.3027628,11.1448123 C10.3138447,10.3702966 10.4800702,9.6830605 10.8014445,9.08308351 C11.1228187,8.48310651 11.5494643,7.98676935 12.081394,7.59405714 C12.6133238,7.20134492 13.2283583,6.92045082 13.9265161,6.75136639 C14.6246739,6.58228197 15.3505255,6.54682931 16.1040926,6.64500736 C16.8022504,6.74318542 17.4533005,6.91772156 18.0572624,7.16862103 C18.6612243,7.4195205 19.1876052,7.7495029 19.636421,8.15857812 C20.0852367,8.56765335 20.4398512,9.06126338 20.7002751,9.63942303 C20.9606991,10.2175827 21.0909091,10.8830017 21.0909091,11.6357001 C21.0909091,12.1811338 20.9579286,12.7074693 20.6919638,13.2147226 C20.4259989,13.7219759 20.0824661,14.1719519 19.661355,14.5646641 C19.240244,14.9573763 18.7692716,15.2737231 18.2484237,15.5137139 C17.7275758,15.7537047 17.2122766,15.890061 16.7025106,15.922787 C16.7800837,16.2609559 16.8382626,16.6100282 16.8770492,16.9700144 C16.9158357,17.3300006 16.962933,17.6790729 17.0183423,18.0172417 C17.0737517,18.3554106 17.154094,18.6690302 17.2593718,18.95811 C17.3646495,19.2471898 17.5225638,19.4844499 17.7331193,19.6698974 C17.9436749,19.8553448 18.2207175,19.9753384 18.5642554,20.0298817 C18.9077934,20.0844251 19.3455207,20.0516996 19.8774504,19.9317042 C19.8552867,20.2262383 19.7389288,20.5562207 19.5283733,20.9216613 C19.3178177,21.2871018 19.0601681,21.6170842 18.7554167,21.9116184 C18.4506653,22.2061525 18.1182142,22.4379583 17.7580534,22.6070428 C17.3978927,22.7761272 17.0626711,22.8170341 16.7523788,22.7297647 C16.1428759,22.555226 15.7106895,22.2825132 15.4558065,21.9116184 C15.2009235,21.5407235 15.0374684,21.1180188 14.9654362,20.6434915 C14.893404,20.1689643 14.8795519,19.6617186 14.9238794,19.1217393 C14.9682069,18.58176 14.9959111,18.0581516 15.006993,17.5508983 C15.0180749,17.043645 14.9682072,16.5773063 14.8573885,16.151868 C14.7465698,15.7264298 14.5027723,15.3828118 14.1259888,15.1210036 C13.9486788,15.5791679 13.7686012,16.0645965 13.5857503,16.5773041 C13.4028995,17.0900117 13.2117401,17.6408914 13.0122664,18.2299598 C12.7019741,19.1462883 12.3251961,19.8362515 11.8819214,20.29987 C11.4386466,20.7634886 10.9787559,21.0443827 10.5022355,21.1425608 C10.0257151,21.2407388 9.55751309,21.180742 9.0976155,20.9625686 C8.6377179,20.7443951 8.241547,20.4171399 7.90909091,19.980793 C8.47426627,19.7408022 8.95354995,19.4571809 9.34695632,19.1299208 C9.7403627,18.8026606 10.0894364,18.4290441 10.3941878,18.0090603 C10.6989392,17.5890764 10.9815226,17.1200105 11.2419466,16.6018485 C11.5023705,16.0836866 11.7794131,15.513717 12.0730827,14.8919226 C12.3667522,14.2701283 12.7019737,13.5910736 13.0787573,12.8547382 C13.4555409,12.1184028 13.9098907,11.3248088 14.4418205,10.4739323 C14.6745397,10.1139461 14.8878625,9.80850786 15.0817953,9.55760839 C15.275728,9.30670892 15.4890508,9.12126427 15.72177,9.00126887 C15.9544893,8.88127347 16.2204502,8.82673093 16.5196607,8.8376396 C16.8188712,8.84854827 17.1901082,8.92490783 17.633383,9.06672058 Z M14.5,0 L14.5,0 C22.5081289,-1.47106941e-15 29,6.49187113 29,14.5 L29,14.5 C29,22.5081289 22.5081289,29 14.5,29 L14.5,29 C6.49187113,29 2.75706978e-15,22.5081289 1.77635684e-15,14.5 L0,14.5 C-9.80712939e-16,6.49187113 6.49187113,1.47106941e-15 14.5,0 Z" id="Combined-Shape"></path>
            </g>
        </g>
    </g>
</svg>