<?xml version="1.0" encoding="UTF-8"?>
<svg width="159px" height="29px" viewBox="0 0 159 29" version="1.1" xmlns="http://www.w3.org/2000/svg" xmlns:xlink="http://www.w3.org/1999/xlink">
    <!-- Generator: Sketch 52.3 (67297) - http://www.bohemiancoding.com/sketch -->
    <title>Logo clossic version</title>
    <desc>Created with Sketch.</desc>
    <g id="Page-1" stroke="none" stroke-width="1" fill="none" fill-rule="evenodd">
        <g id="Desktop-HD" transform="translate(-642.000000, -57.000000)">
            <g id="Logo-clossic-version" transform="translate(642.000000, 42.000000)">
                <text id="roster" font-family="BigCaslon-Medium, Big Caslon" font-size="44" font-weight="400" fill="#51E2A0">
                    <tspan x="54.448" y="41">roster</tspan>
                </text>
                <g id="Cap-copy-cat" transform="translate(0.000000, 15.000000)">
                    <path d="M9.88526823,19.773115 C9.88830934,20.3074658 9.92195375,20.7388631 10.0139792,21.0124163 C10.384687,22.1143759 14.1587872,23.2709737 21.5093908,23.9316148 C25.2984453,24.272159 30.1043932,23.716186 33.507168,22.9833267 C32.5024855,23.8750089 30.9006994,24.9310616 28.7018096,26.1514849 C25.2325787,27.7027142 21.1959714,28.4783288 16.5919878,28.4783288 C9.68601247,28.4783288 1.03112759,26.1514849 0.097466229,24.6559699 C-0.524974678,23.6589599 1.83386845,22.3848403 7.1739956,20.833611 C8.13360875,20.4525963 9.0373663,20.0990977 9.88526823,19.773115 Z" id="Combined-Shape" fill-opacity="0.816462862" fill="#FFC5A6"></path>
                    <path d="M13.247921,7.05313773 C14.290819,6.1144218 18.8804896,4 22.9445267,4 C27.0085639,4 32.5206034,4.89438976 34.8840912,7.83418224 C37.247579,10.7739747 38.3767267,20.6226387 37.247579,21.6958266 C36.1184314,22.7690145 27.4468074,24.5470183 21.4075812,24.0042382 C14.194052,23.3559168 10.4903315,22.2208873 10.1265366,21.1394771 C9.84182922,20.2931609 10.1265366,17.9073237 10.1265366,15.6697709 C10.1265366,12.561956 11.6235021,8.5152824 13.247921,7.05313773 Z" id="Rectangle" fill="#A6FFCF"></path>
                    <path d="M12.0094361,17.0838486 C12.0181702,16.8022631 12.0337597,16.4332452 12.0596721,15.8465105 C12.0891652,15.1786995 12.1038065,14.7815632 12.1120036,14.3568185 C12.1155669,14.1721851 12.1173966,13.9961954 12.1173966,13.8268396 C12.1173966,10.7074523 13.5906694,6.66780488 15.3443099,5.08934739 C16.8922877,3.69600755 21.5810838,2 25.0095173,2 C30.0829539,2 34.7149326,3.25505051 36.8660222,5.93065439 C39.1623396,8.78689788 40.6058133,18.5861477 38.9683484,20.142461 C38.4047072,20.6781686 36.9893621,21.169359 34.9689908,21.6185129 C33.9877435,22.4465257 32.5360288,23.3895733 30.5402395,24.4933059 C27.2462945,25.966158 23.4326881,26.6989241 19.1064558,26.6989241 C12.8710962,26.6989241 4.41622382,24.6316496 3.2404776,22.7483693 C2.52119088,21.5962341 3.2735692,20.6121599 4.79919398,19.7880998 C5.94925056,19.1669014 7.75918633,18.5026956 10.1626595,17.8092424 C10.8055225,17.5539935 11.4211091,17.3121972 12.0094361,17.0838486 Z" id="Combined-Shape" stroke="#4C4B4E" stroke-width="2"></path>
                    <path d="M15.3443099,5.08934739 C16.8922877,3.69600755 21.5810838,2 25.0095173,2 C30.0829539,2 34.7149326,3.25505051 36.8660222,5.93065439 C39.1623396,8.78689788 40.6058133,18.5861477 38.9683484,20.142461 C37.4579138,21.5780395 28.7582153,23.0283957 23.4940735,22.5552769 C16.6494974,21.9401155 12.7328606,20.8946718 12.1695912,19.220307 C11.9617895,18.6025993 11.9617895,18.062866 12.0596721,15.8465105 C12.0891652,15.1786995 12.1038065,14.7815632 12.1120036,14.3568185 C12.1155669,14.1721851 12.1173966,13.9961954 12.1173966,13.8268396 C12.1173966,10.7074523 13.5906694,6.66780488 15.3443099,5.08934739 Z" id="Rectangle" stroke="#4C4B4E" stroke-width="2"></path>
                    <path d="M26,3 C27.1045695,3 28,2.32842712 28,1.5 C28,0.671572875 27.6568115,0 26,0 C24.3431885,1.52175664e-16 24,0.671572875 24,1.5 C24,2.32842712 24.8954305,3 26,3 Z" id="Oval" fill="#4C4B4E"></path>
                </g>
            </g>
        </g>
    </g>
</svg>